<?xml version="1.0" encoding="iso-8859-1"?>
<!-- Generator: Adobe Illustrator 18.1.1, SVG Export Plug-In . SVG Version: 6.00 Build 0)  -->
<svg version="1.1" id="Capa_1" xmlns="http://www.w3.org/2000/svg" xmlns:xlink="http://www.w3.org/1999/xlink" x="0px" y="0px"
	 viewBox="0 0 481.618 481.618" style="enable-background:new 0 0 481.618 481.618;" xml:space="preserve">
<g>
	<path style="fill:#010002;" d="M423.092,210.363l-1-11.664l-5.43-63.5c-67.353-7.551-111.223-36.652-121.335-43.967
		c-14.948,1.902-26.434,8.291-35.059,19.484c-25.215,32.726-15.314,94.324-15.209,94.95l3.666,22.037
		c20.232,21.305,48.755,34.66,80.457,34.66C368.785,262.362,403.446,241.561,423.092,210.363z M274.738,160.275
		c0-8.08,6.552-14.631,14.631-14.631s14.631,6.552,14.631,14.631c0,8.08-6.552,14.631-14.631,14.631
		S274.738,168.355,274.738,160.275z M366.591,210.916c-23.402,14.753-51.486,14.851-74.246-1.122
		c-8.112-5.69,2.105-17.168,10.104-11.551c16.94,11.884,38.473,10.713,55.575-0.065
		C366.396,192.903,374.955,205.641,366.591,210.916z M366.542,174.907c-8.08,0-14.631-6.552-14.631-14.631
		c0-8.08,6.552-14.631,14.631-14.631s14.631,6.552,14.631,14.631C381.173,168.355,374.622,174.907,366.542,174.907z"/>
	<path style="fill:#010002;" d="M216.854,169.777c4.3,11.77,10.445,24.248,19.11,37.424c0,0-19.858-123.083,60.249-130.821
		c0,0,49.202,40.204,129.301,47.942l6.072,73.694c0,0,3.544-6.096,7.34-16.688c4.731-13.193,9.836-33.376,9.031-57.599
		c-0.406-12.144-2.333-25.296-6.519-39.09c-3.967-13.054-9.933-26.654-18.679-40.521c-16.29-25.824-52.242-36.205-88.293-36.205
		c-49.682,0-99.559,19.712-98.478,45.886c0,0-12.721,12.429-20.809,34.758c-4.438,12.266-7.446,27.515-6.202,45.366
		C209.733,144.92,212.148,156.902,216.854,169.777z"/>
	<path style="fill:#010002;" d="M408.461,274.555h-44.049l-7.771,174.764h-56.567l-7.771-174.764h-44.049
		c-35.912,0-65.029,29.117-65.029,65.029l-8.129,134.121h306.52l-8.129-134.121C473.49,303.671,444.373,274.555,408.461,274.555z"/>
	<polygon style="fill:#010002;" points="331.166,274.555 328.354,271.742 325.549,274.555 304.887,295.218 321.501,311.832 
		304.887,409.018 328.354,432.485 351.829,409.018 335.214,311.832 351.829,295.218 	"/>
	<path style="fill:#010002;" d="M52.893,377.089h58.396c29.214,0,52.893-23.679,52.893-52.893v-82.221l28.531-28.531
		c5.162-5.162,5.162-13.534,0-18.696l-28.669-28.669c-1.447-27.922-24.467-50.129-52.746-50.129H52.893
		C23.679,115.95,0,139.629,0,168.835v155.361C0,353.41,23.679,377.089,52.893,377.089z M16.257,168.835
		c0-20.2,16.436-36.635,36.635-36.635h58.396c19.468,0,35.506,15.249,36.514,34.717l0.325,6.243l4.414,4.414l26.524,26.524
		l-26.385,26.385l-4.763,4.763v6.73v82.229c0,20.199-16.436,36.635-36.635,36.635H52.893c-20.2-0.008-36.635-16.444-36.635-36.644
		V168.835z"/>
	<path style="fill:#010002;" d="M35.928,243.747l3.723-2.78v45.78c0,4.487,3.642,8.129,8.129,8.129h64.362
		c4.487,0,8.129-3.642,8.129-8.129v-46.195l4.373,3.227c1.455,1.073,3.146,1.585,4.82,1.585c2.495,0,4.958-1.146,6.552-3.3
		c2.666-3.617,1.894-8.706-1.715-11.364l-49.511-36.514c-2.886-2.13-6.82-2.113-9.689,0.024l-48.893,36.514
		c-3.601,2.691-4.341,7.779-1.65,11.372C27.239,245.698,32.335,246.446,35.928,243.747z M79.993,210.843l24.248,17.883
		c-0.049,0.374-0.219,0.699-0.219,1.089v48.804h-13.25v-28.466H69.158v28.466h-13.25v-48.812c0-0.301-0.138-0.561-0.171-0.854
		L79.993,210.843z"/>
</g>
<g>
</g>
<g>
</g>
<g>
</g>
<g>
</g>
<g>
</g>
<g>
</g>
<g>
</g>
<g>
</g>
<g>
</g>
<g>
</g>
<g>
</g>
<g>
</g>
<g>
</g>
<g>
</g>
<g>
</g>
</svg>
